<svg version="1" xmlns="http://www.w3.org/2000/svg" width="11112" height="11112" viewBox="0 0 8334.000000 8334.000000"><path d="M2784.7 2763C1444.9 5442.6 1403.3 5526 1404.9 5528.2c.8 1.3 2.1 3 2.8 3.8.6.8 4.5 5.8 8.5 11 8.1 10.7 29.5 37 31.2 38.5.6.5 2.2 2.3 3.5 4 1.2 1.6 3.7 4.6 5.4 6.5 1.8 2 5.9 6.7 9.2 10.5 21.4 25 69.8 74.5 95.3 97.5 40.5 36.5 62 54 111.7 90.8 10.1 7.4 30.5 21.2 31.4 21.2.5 0 1.1.4 1.3.8.4 1.1 17.4 12.2 18.7 12.2.5 0 1.1.4 1.3.9.3 1 1.5 1.7 27.7 17.4 9.8 5.9 18.4 10.7 19 10.7.6 0 1.1.3 1.1.8 0 .4 3.7 2.7 8.3 5.1 4.5 2.4 11.8 6.3 16.2 8.8 13.3 7.3 72.4 36.3 74 36.3.3 0 4.4 1.8 9.1 4 4.7 2.2 8.7 4 8.9 4 .2 0 1.6.5 3.2 1.2 1.5.6 3 1.2 3.3 1.3.3.1 2.8 1.2 5.5 2.4 2.8 1.3 5.5 2.4 6 2.5.6.2 2.4.8 4 1.6 6.4 2.7 24.9 9.9 28.5 11 1.4.5 6.3 2.2 11 4 6.8 2.5 14.5 5.2 19 6.5.3.1 1.6.6 3 1.2 1.4.5 5.2 1.8 8.5 2.8 3.3.9 6.9 2.1 8 2.5 2 .9 13.3 4.4 24 7.5 3.3 1 7.9 2.4 10.2 3.1 2.3.7 5.5 1.6 7 1.9 4.5 1 4.8 1 5.8 1.6.6.4 2.8 1 5 1.4 4.5.9 5.4 1.2 5.8 1.5.1.1.9.3 1.7.5.8.1 3.5.8 6 1.5s5.3 1.4 6.3 1.6c1 .2 2.7.6 3.7.9 1 .3 2.7.7 3.7.9 1 .2 3.6.9 5.8 1.4 2.2.6 5.1 1.3 6.5 1.6 1.4.3 4.3 1 6.5 1.5s5.1 1.2 6.5 1.5c1.4.3 3.4.7 4.5 1 2.2.5 16.9 3.6 20 4.2 1.1.2 3.1.6 4.5.9 1.4.3 7.5 1.4 13.5 2.5 6.1 1.1 12.1 2.2 13.5 2.5 1.3.3 4.2.7 6.5 1 4.5.7 7.9 1.3 11.5 2 1.3.2 4 .7 6 1 19.2 2.7 32.7 4.6 36.7 5 2.6.3 6.6.7 8.8 1 5.8.7 16.1 1.8 28 3 2.8.2 8.2.7 12 1 3.9.4 9.3.8 12 1 40.8 3.4 94 4.5 142.5 3.1 14-.4 28-.9 31-1.1 3-.2 10-.7 15.4-1 5.5-.3 12.4-.8 15.5-1.1 3.1-.3 8-.7 10.9-.9 3-.2 7.9-.6 11-1 6.9-.7 13.1-1.3 19.7-2 2.8-.3 6.6-.7 8.5-1 1.9-.3 5.3-.7 7.5-1 4.5-.6 9.1-1.2 15-2.1 2.2-.3 5.1-.7 6.5-.9 3.6-.4 12.2-1.7 14-2 .8-.1 3.5-.6 6-1s5.4-.9 6.5-1.1c1.1-.3 3.5-.7 5.4-1 1.8-.3 4.3-.8 5.5-1 1.1-.2 3.6-.7 5.5-1 1.8-.3 4.3-.8 5.5-1 1.1-.2 3.2-.6 4.6-.9 1.4-.3 3.6-.7 5-1 1.4-.3 3.9-.8 5.5-1 1.7-.3 3.8-.8 4.7-1.1 2.2-.7 5.6-1.4 9.3-2 1.7-.3 4.8-1 7-1.6 4.1-1 6.3-1.6 10.4-2.4 1.4-.3 2.8-.7 3.1-.9.4-.2 2.2-.7 4.1-1 1.9-.3 5.2-1.1 7.4-1.7 5.6-1.6 5.8-1.6 8-2.1 1.1-.3 4-1.1 6.5-1.8s5-1.3 5.5-1.5c6.2-1.3 48.8-14.6 58.5-18.1.8-.4 2.2-.7 3-.9.8-.2 2.3-.7 3.5-1.3 1.1-.5 7.4-2.9 14-5.2 6.6-2.3 12.4-4.6 12.9-5.1.6-.4 1.6-.8 2.2-.8 1.2 0 33.2-13.1 44.9-18.5 19.7-8.9 42.7-20.2 56-27.4 5-2.7 10.4-5.6 12-6.4 16.9-7.9 70.2-41.5 101-63.6 6.6-4.8 13.6-9.8 15.5-11.1 1.9-1.4 4.2-3.2 5-4 .8-.9 2.6-2.3 4-3.1 10.3-6.6 60.1-48.7 82.5-69.9 10.1-9.5 45.6-45.1 52.5-52.6 32.5-35.2 53.5-60 81.5-95.9 3.3-4.2 21.5-28.5 24.3-32.4.9-1.4 3.1-4.3 4.7-6.5 11.6-15.5 46.6-67.5 60.2-89.5 2.2-3.6 6.1-11.5 8.9-18.1 1.8-4 2.4-5.5 5.7-13 1.4-3 4.3-10 6.7-15.5 2.3-5.5 5.5-12.8 7.1-16.3 1.6-3.4 2.9-6.8 2.9-7.5 0-.7.4-1.7.9-2.2.5-.6 3.4-7.1 6.6-14.5 5.9-13.9 6.6-15.5 10.9-25.3 1.4-3.2 2.6-6 2.6-6.2 0-.3.9-2.4 1.9-4.8 1.1-2.3 3.3-7.3 5-11 1.7-3.8 3.1-7 3.1-7.2 0-.3 1.1-2.8 2.4-5.7 3.3-7.3 10.1-23.2 10.1-23.8.1-.3 1-2.5 2.2-5 1.1-2.5 6.9-15.8 12.8-29.5 5.9-13.8 12-27.8 13.6-31.3 1.6-3.5 2.9-6.6 2.9-6.9 0-.2 1.4-3.4 3-7 1.7-3.5 3-6.6 3-6.8 0-.4 1.4-3.6 6-14 1.2-2.7 4.1-9.5 8-18.5 1.7-4.1 3.8-8.9 4.5-10.5.7-1.7 3.4-8 6-14 2.6-6.1 5.8-13.5 7.2-16.5 1.4-3 3.1-7.1 3.8-9 .7-1.9 2.2-5.5 3.3-8 6.3-14 8.2-18.2 8.2-18.6 0-.3.9-2.6 2.1-5.2 1.2-2.6 2.7-6.1 3.4-7.7.7-1.7 2.2-5 3.3-7.5 1.1-2.5 3.2-7.4 4.7-11 1.5-3.6 3.7-8.8 5-11.5l6-14c3.5-8.6 4.8-11.6 10.1-23.3 1.3-2.9 2.4-5.5 2.4-5.8 0-.3 1-2.6 2.1-5.2 4.2-9.1 6.2-13.7 6.4-14.2 0-.3 1.1-2.7 2.3-5.4 1.2-2.7 2.2-5.1 2.2-5.4 0-.3.9-2.6 2.1-5.1 6-13.1 9.7-21.6 11.9-27.1 1.2-2.9 2.9-7.2 3.9-9.4 1-2.3 3.3-7.5 5-11.6 1.8-4.1 3.6-8.4 4.1-9.5.5-1.1 2-4.6 3.4-7.7 1.4-3.1 5.7-13.2 9.7-22.5 3.9-9.2 8.4-19.6 10-23.1 1.6-3.5 2.9-6.5 2.9-6.8 0-.6 3.9-9.4 5.6-12.6.9-1.6 1.2-2.8.8-2.8-.3 0-.2-.6.4-1.3.5-.6 3.1-6.2 5.6-12.2 2.6-6.1 5.3-12.4 6.1-14 .7-1.7 2.7-6.4 4.5-10.5 1.8-4.1 4.1-9.4 5.1-11.7 1.1-2.3 1.9-4.4 1.9-4.7 0-.6 4.6-11 6.1-13.9.9-1.6 3.9-10.1 4.4-12.2.1-.6.4-1.7.8-2.5.3-.8 2.2-6.9 4.2-13.5s4.1-13.1 4.5-14.5c1-2.6 7.3-23.3 9.5-31 .7-2.5 2.7-9.2 4.5-15 3.7-12.1 8.9-29.8 9.5-32 .2-.8 1.3-4.7 2.5-8.5 4-13.4 6.2-20.6 6.4-21.8.2-.7.6-1.9.9-2.7.3-.8 1.3-4 2.1-7s2.4-8.9 3.6-13c1.1-4.1 2.2-8 2.4-8.5.1-.6 1-3.7 2-7s2-6.7 2.2-7.5c.2-.8 1-4 1.9-7 .9-3 1.7-6 1.9-6.5.1-.6.8-3 1.5-5.5s1.5-5.2 1.6-6c.2-.8 1.5-5.6 3-10.5 1.4-5 3.2-11.4 4-14.3.8-2.8 2.2-7.6 3-10.5.9-2.9 1.8-6.6 2.1-8.2.3-1.5.9-3.6 1.5-4.7.5-1 .7-1.8.5-1.8-.3 0-.1-1.1.4-2.5s1.2-3.6 1.5-4.8c.3-1.2 1.9-7.2 3.5-13.2 1.7-6.1 3.3-11.7 3.5-12.5.2-.8 1.1-4.2 2-7.5.9-3.3 1.8-6.7 2-7.5.2-.8 1.8-6.7 3.5-13s3.3-12.4 3.5-13.4c.3-1 .9-3.3 1.4-5 1-3.2 6-21.9 6.6-24.6l2-8c.9-3.6 1.9-7.2 2-8 .2-.8.4-1.5.5-1.5.1 0 .3-.7.5-1.5.9-3.8 1.5-6 3.4-13 4-15.1 9.3-35.5 9.6-37.3.2-1 .7-2.7 1-3.7.3-1 .7-2.7.9-3.7.2-1 .9-3.6 1.5-5.8.6-2.2 1.1-4.3 1.1-4.7.1-.4.8-3.1 1.6-6 .9-2.8 1.7-6 1.9-7.1.3-1 .7-2.7 1-3.7.3-1 .7-2.7.9-3.7.2-1 1.1-4.5 2.1-7.8.9-3.3 1.8-6.9 2-8 .5-2.7 5.3-21.3 6.5-25 .5-1.7 1.2-4.1 1.5-5.5 1.7-8.1 10-42 11.4-46.5.8-2.4 1.7-6.1 2.6-10.5.1-.3.4-1.4.8-2.5.3-1.1.9-3.1 1.1-4.5.8-3.7 2.4-10.2 3-12.5.5-1.9 4.3-17 5.2-21 .9-3.4 1-3.9 1.7-6 .3-1.1.9-3.1 1.1-4.5.3-1.4 1-4.5 1.7-7 .6-2.5 1.2-5.2 1.4-6 .2-.8 2-8.3 4-16.5 2-8.3 3.9-15.7 4-16.5.2-.8 1.6-6.2 3-12 1.5-5.8 2.8-11.3 3.1-12.3.2-.9.6-2.6.9-3.7.3-1.1.7-2.8.9-3.8.2-.9 3-12.1 6.1-24.7 3.1-12.7 5.8-23.7 6-24.5.3-1.5 5.3-22.2 6-25 6.3-25.1 6.4-25.5 7.1-29 .3-1.4.7-3.3 1-4.2.6-2.1.9-3.3 3.8-15.3 1.4-5.5 3.1-12.5 3.9-15.5.9-3 1.8-6.9 2-8.5.3-1.7 1.7-7.5 3.1-13 1.5-5.5 2.8-10.9 3-12 .2-1.1 1.6-6.7 3.1-12.5s2.9-11.6 3.1-13c.3-1.4 1.3-5.7 2.4-9.5 1.1-3.9 2.1-8.1 2.4-9.5.5-2.3.9-4.1 2.1-9 .3-1.1.8-3 1.1-4.3.9-3.9 1-4.2 1.7-6.2.3-1.1.8-3.1 1.1-4.5.2-1.4.9-4.3 1.4-6.5.6-2.2 1.4-5.5 1.7-7.4.3-1.9 1-4.2 1.6-5.2.5-1.1.8-1.9.5-1.9-.2 0 0-1.6.6-3.6.5-2 1.2-4.5 1.4-5.5.2-1.1.6-2.9 1-4.2.3-1.2.7-3.2 1-4.4.2-1.2.9-3.4 1.4-4.8.5-1.4.8-2.5.5-2.5-.2 0 .2-1.8 1-4s1.2-4 1-4c-.3 0 0-1.1.5-2.5s1.2-3.6 1.4-4.8c.2-1.2 2.1-8.7 4.1-16.7 2-8 3.9-15.4 4.1-16.5.2-1.1 6.7-27.2 14.4-58 15.4-61 14.8-58.6 15.5-61.6.2-1.1.7-2.9 1-3.9.3-1 .8-2.8 1-3.9.5-2 1-4.1 1.9-7.9 2.3-8.7 5.9-23 6.1-24.2.2-.8.8-2.7 1.4-4.3.6-1.5.8-2.7.5-2.7-.2 0 0-.8.5-1.8.5-.9 1.1-3.1 1.4-4.7.8-4.1 1.4-6.5 3.6-14.5.7-2.5 1.5-5.3 1.7-6.2.2-1 .6-2.7.9-3.8.3-1.1.7-2.9 1-4 .3-1.1.7-2.9 1-4 .3-1.1.7-2.9.9-4 .3-1.1 1.7-6.4 3.1-11.7 1.5-5.4 2.9-10.5 3.1-11.3 1.5-6.6 6.5-25.2 7.3-27.3.6-1.5.8-2.7.6-2.7-.2 0 0-1.1.5-2.5s1.2-3.6 1.4-4.8c.3-1.2 1.4-5.8 2.6-10.2 1.2-4.4 2.3-8.7 2.5-9.5.2-.8 1.1-4.2 2-7.5.9-3.3 1.8-6.7 2-7.5.2-.8 1.2-4.2 2.1-7.5.9-3.3 1.7-6.7 1.9-7.5.2-.8 1.5-5.8 3-11s2.8-10 2.9-10.5c.1-.6.5-1.9.9-3 .3-1.1.8-3.1 1.1-4.5.7-3.3 1.4-5.9 7.6-28 2.8-10.2 5.3-19.2 5.5-20 .4-1.5 4.2-15.1 5-18 2.7-9.4 7.1-25.3 7.9-28.8.6-2.3 5.4-18.9 6.7-23.2.6-1.9 1.1-4 1.1-4.5 0-.6.4-1.7.9-2.6.4-.9 1-2.8 1.3-4.2.2-1.4 1.6-6.3 3-10.9 1.5-4.6 2.8-9.2 3-10.3.3-1.1 1.3-4.8 2.4-8.3 1.1-3.4 1.8-6.2 1.5-6.2-.3 0-.1-.6.5-1.3.5-.6 1.3-2.8 1.8-4.7 1-4.6.7-3.5 5.4-19.5 6.4-21.7 6.7-22.4 9.5-32 1.5-5 2.8-9.5 3-10 .1-.6.4-1.7.7-2.5 1.5-4.3 2.9-9.1 3.3-10.7.2-1 1.3-4.6 2.4-8.1 1.7-5.1 3.3-10.5 4.6-15.2.1-.3.8-2.5 1.5-5s1.4-4.7 1.5-5c.1-.3 1.1-3.7 2.4-7.5 1.2-3.9 2.4-7.7 2.6-8.5.2-.8 1-3.5 1.8-6s3.8-11.9 6.7-21c7.2-23.1 7-22.4 7-23 0-.3 1.1-3.5 2.4-7.3 1.4-3.7 2.2-6.7 1.9-6.7-.3 0-.1-.6.4-1.3.9-1 1.4-2.4 2.9-8.2.1-.6 5-15.4 10.9-33s10.8-32.7 11-33.5c.2-.8 5.1-15.2 10.9-32 5.7-16.8 11.2-32.8 12.1-35.5.9-2.8 2-5.9 2.5-7 .5-1.1 5-13.7 10.1-28 8.1-22.9 13-36.5 17.5-48.5.7-1.9 2.6-7.1 4.2-11.5 3.6-9.7 10.1-27.4 10.9-29.5.4-.8.7-1.7.8-2 .1-.3.7-1.9 1.4-3.5.7-1.7 1.4-3.5 1.5-4 .3-1 1.6-4.5 4.1-10.5.7-1.9 2.5-6.7 4-10.5 1.4-3.9 3-7.9 3.5-9 .5-1.1 2.5-6.3 4.5-11.5s4.3-10.9 5-12.5c.7-1.7 2.3-5.7 3.6-9 1.2-3.3 3-7.9 4-10.2 1.1-2.3 1.9-4.5 1.9-4.8 0-.3 1.1-3.1 2.5-6.1 1.4-3 2.5-5.7 2.5-6.1 0-.5 1.1-3.1 6.1-14.8.4-1.1 2-4.6 3.3-7.8 1.4-3.1 2.6-6.1 2.7-6.5.3-1.2 1.5-4.4 5.2-12.7 1.9-4.4 5.8-13.6 8.7-20.5 2.9-6.9 6-14.1 6.9-16 .9-1.9 1.6-3.7 1.6-4 .1-.3 1.6-3.6 3.3-7.4 1.8-3.8 3.2-7 3.2-7.3 0-.2 1.8-4.2 4-8.9s4-9.2 4-10c0-.8.5-1.4 1-1.4.6 0 1-.7 1-1.6 0-.9.7-2.8 1.5-4.2.8-1.5 2.8-5.9 4.5-9.7 1.7-3.9 4-8.6 5-10.7 1-2 1.7-3.8 1.4-4.1-.2-.2.2-1 1.1-1.7.8-.7 1.5-1.8 1.5-2.5 0-.8.7-2.6 1.5-4.2 1.6-3 11.8-24.7 15.4-32.7 3.5-7.6 25-51.9 26-53.6.5-.8 3.1-6 5.8-11.4 2.6-5.5 5.3-10.9 5.9-12 .7-1.2 3.5-6.6 6.3-12.1s8-15.4 11.5-22 7.9-14.9 9.7-18.5c1.9-3.6 3.7-6.7 4.1-6.8.5-.2.8-1.1.8-2 0-.8.6-2.3 1.4-3.1.7-.9 3.1-5 5.3-9.1 3.8-7.2 12.6-23.2 17.3-31.5 1.2-2.2 4-7.2 6.2-11 2.1-3.9 4.3-7.7 4.8-8.5.5-.8 2.2-3.8 3.8-6.5 1.6-2.8 6.5-11.2 11-18.9 4.5-7.6 8.2-14.2 8.2-14.6 0-.5.3-1 .8-1.2.4-.2 2.5-3.2 4.6-6.8 3.2-5.3 26.9-43.4 32.6-52.5.8-1.3 3.7-5.9 6.4-10.2 2.7-4.3 6.4-9.9 8.3-12.4 1.8-2.6 3.3-5 3.3-5.4 0-.3.6-1.3 1.3-2 2.5-2.9 3.7-4.4 3.7-4.9 0-.3 2.5-4.1 5.5-8.5s5.5-8.5 5.5-9.1c0-.5.5-1 1-1 .6 0 1-.6 1-1.4 0-.8.4-1.6.8-1.8.4-.2 5.9-7.7 12.2-16.8 30.3-43.9 69.2-95.1 104.7-137.7 16.3-19.7 42.6-50 45.4-52.5 1-.9 1.9-1.8 1.9-2.1 0-.3 1.5-2 3.3-3.9 1.7-1.8 8.8-9.4 15.7-16.8 27.6-29.7 61.1-63.3 84.5-84.8 2.2-2 7.2-6.6 11-10.1 3.9-3.5 9-8.3 11.5-10.6 33.6-30.8 90.8-76.8 132.7-106.7 8.7-6.1 16-11.4 16.3-11.7.3-.3 1.3-1.1 2.2-1.6.9-.6 7-4.6 13.6-9l11.9-8-405.4-810.8C4349.4 364.8 4166.8 0 4166.6 0c-.2 0-622.1 1243.3-1381.9 2763zM5341.5 2353.1c-.5.5-4.8 3.9-9.5 7.6-44.6 35.2-99.4 87.9-143.2 137.8-62.1 70.9-125.6 160.8-176.6 250.5-12.3 21.6-18.5 32.8-22 39.2-2.3 4.3-6.1 11.3-8.4 15.5-8.9 16.4-18.4 34.9-32.7 63.8-13.9 28-17.1 34.8-24.9 51.5-1.7 3.6-5.3 11.4-8.1 17.3-2.8 6-5.1 11-5.1 11.3 0 .2-1.6 3.9-3.6 8.1-1.9 4.3-4.2 9.1-4.9 10.8-.7 1.6-2.9 6.4-4.7 10.5-1.9 4.1-3.5 7.8-3.6 8.3-.1.4-.8 2.2-1.6 4-.8 1.7-2.8 6.3-4.5 10-1.7 3.8-3.1 7.1-3.1 7.3 0 .3-.8 2.4-1.9 4.7-1.9 4.5-3.2 7.9-3.2 8.7-.1.3-.4.9-.9 1.5-.4.5-2.9 6.2-5.4 12.5-2.6 6.3-5 12.4-5.5 13.5-2.6 5.8-4.5 10.6-11.1 26.9-4 9.9-8.5 21.4-10 25.5-3.1 8-8.9 23.2-12.2 31.6-1.1 2.7-2.1 5.4-2.2 6-.1.5-.9 2.6-1.8 4.6-.9 2-1.9 4.7-2.2 6-.4 1.3-1.1 3.3-1.6 4.4-1.5 3.5-7.2 19-7.4 20-.1.5-.4 1.4-.7 2-.5.8-3 7.6-3.4 9.5-.1.3-.5 1.2-.8 2-1.7 3.9-19.1 53-23.7 67-1.8 5.2-4.2 12.2-5.5 15.5-1.2 3.3-2.3 6.4-2.5 7-.4 1.4 0 .2-9 27.5-4.5 13.5-8.3 25.2-8.5 26-.2.8-2.3 7.1-4.5 14l-4.5 13.5c-.1.5-.5 1.7-.8 2.5-.6 1.5-4 13-4.2 14 0 .3-.3.9-.6 1.5-.4.5-1 2.3-1.4 4-1.1 3.9-.7 2.6-4.4 14.5-1.8 5.8-4.8 15.3-6.7 21.2-1.9 5.8-3.7 11.5-3.9 12.5-.2 1-.8 3.1-1.5 4.8-.6 1.6-1.2 3.2-1.2 3.5 0 .3-.2.9-.4 1.5-.2.5-.9 3-1.5 5.5-.7 2.5-1.3 4.7-1.4 5-.1.3-1 3.2-2 6.5-1.1 3.3-2 6.2-2 6.5-.1.4-2.4 7.9-3.1 10.5-.2.5-1 3.2-1.8 6-.8 2.7-2.2 7.2-3 10-.8 2.7-2.9 9.7-4.6 15.5-1.7 5.8-3.3 11.2-3.5 12.1-.2.8-1.1 4-2 7-1.9 6.3-5.5 18.8-6 20.9-.2.8-1.6 5.5-3 10.5-1.5 4.9-2.9 9.8-3 10.8-.2.9-.6 2.1-.9 2.5-.3.5-.7 1.9-1 3.3-.3 1.3-1.3 4.9-2.2 7.9-1.6 5.4-5.1 18.1-5.9 21-.2.8-1.4 5.3-2.8 10-3.5 12.4-5.1 18.5-4.8 18.5.1 0-.3 1.3-.9 3-.7 1.6-1.3 3.7-1.5 4.5-.3.8-1.2 4.2-2.1 7.5-.9 3.3-1.7 6.7-1.9 7.6-.2.9-1.3 4.9-2.5 8.9s-2.3 8.2-2.6 9.3c-.2 1.1-.8 3.4-1.3 5.1-1.1 3.2-6.5 23.1-10.7 39.6-1.4 5.2-2.6 9.9-2.8 10.5-.1.5-.8 3-1.5 5.5s-1.5 5.3-1.7 6.2c-.2 1-.6 2.6-.9 3.5-.2 1-1.2 4.5-2 7.8-.9 3.3-1.8 6.8-2 7.7-.8 3-1.6 6.2-2.1 8.5-.2 1.2-.8 3.3-1.3 4.5-.5 1.3-.9 2.6-1 3 0 .5-.1.9-.2 1 0 .2-.2 1-.4 1.8s-1.8 6.9-3.5 13.5c-1.8 6.6-3.4 12.8-3.6 13.7-.2 1-.6 2.7-.9 3.8-.3 1.1-.7 2.9-1 4.1-.2 1.1-.7 2.9-1 3.9-.3 1-.7 2.7-.9 3.7-.2 1-1.6 6.2-3.1 11.6-1.4 5.3-2.8 10.5-3 11.5-.2.9-2.4 9.8-5 19.7-2.5 9.9-4.8 18.8-5 19.8-.2 1-.7 2.7-1 3.7-.3 1-.7 2.7-.9 3.7-.2 1-1.6 6.5-3.1 12.3-1.5 5.8-2.9 11.3-3.1 12.3-.2 1-.6 2.7-.9 3.7-.3 1-.8 2.7-1 3.7-.2 1-2.5 9.9-5 19.8s-4.8 19.2-5 20.6c-.2 1.4-.9 3.8-1.4 5.2-.6 1.5-.8 2.7-.6 2.7.2 0 0 1.1-.5 2.5s-1.2 3.6-1.4 4.8c-.2 1.2-2.1 8.7-4.1 16.7l-4 16c-.2.8-.8 3.5-1.5 6s-1.4 5.3-1.6 6.2c-1 4.3-1.3 5.6-2.7 11.3-.9 3.3-1.8 7.1-2.1 8.5-.3 1.4-2.4 9.9-4.7 19-2.2 9.1-4.3 17.3-4.5 18.2-.2 1-.6 2.8-1 4-.3 1.3-.7 3.2-.9 4.3-1.1 5-1.5 6.3-2.9 11.7-.8 3.1-1.7 6.7-2 8-.3 1.2-.7 3.3-1 4.5-.4 1.3-.8 3.1-1 4-.2 1-1.2 4.7-2.1 8.3-.9 3.6-1.9 7.4-2.1 8.5-.2 1.1-2.6 11-5.3 22-4.8 19.2-6.2 25.6-6.3 27.2 0 .5-.4 1.5-.8 2.3-.4.8-1.1 3.1-1.4 5.1-.3 2-1 4.8-1.5 6.3-.6 1.4-.9 2.6-.6 2.6.2 0-.2 1.8-1 4s-1.2 4-1 4c.3 0 0 1.1-.5 2.5s-1.2 3.7-1.4 5c-.3 1.4-1.4 6.4-2.7 11.2-1.2 4.8-2.2 9.2-2.3 9.8-.1.5-.5 1.9-.9 3-.3 1.1-.8 3.1-1.1 4.5-.8 4.1-1.3 6.2-4.1 17.6-1.5 6-2.8 11.6-3 12.4-.2.8-.8 3.5-1.5 6-1.2 4.3-1.4 5.4-2.5 10.1-.2 1.1-.7 2.9-1 3.9-1.8 5.7-2.7 3.2 15.1 44.5 7.4 17 6.9 15.9 12.3 28.3 2.3 5 4.1 9.4 4.1 9.7 0 .2 1.1 2.8 2.4 5.7 1.4 2.9 4.5 10 7 15.8 2.4 5.8 5.5 12.7 6.7 15.5 1.2 2.7 2.3 5.2 2.4 5.5.4 1.3 3.8 9.3 7.5 17.5.5 1.1 2.3 5.4 4.1 9.5 1.7 4.1 3.7 8.8 4.4 10.5.7 1.6 3.8 8.8 6.9 15.8 3.1 7 5.6 12.9 5.6 13.2 0 .2 1.4 3.4 3.1 7.2 3.5 7.9 4.1 9.3 6.7 15.3 1.1 2.5 2.8 6.3 3.8 8.5.9 2.2 1.8 4.2 1.9 4.5.9 2.7 23.3 54.6 26.3 61 .9 1.9 1.7 3.9 1.8 4.5.1.5 1.1 3 2.2 5.5 6.5 14.3 8.2 18.2 8.2 18.5 0 .3 1.2 3 2.6 6.2 4.5 10.1 5.1 11.6 9.4 21.8 2.3 5.5 4.5 10.4 4.8 11 .4.5.7 1.4.9 2 .2 1 10.7 25.3 14.3 33.2 1.1 2.4 2 4.5 2 4.8 0 .3.9 2.4 1.9 4.8 1.1 2.3 3.6 8 5.6 12.7 2 4.7 4.3 9.8 5 11.5.8 1.6 2.5 5.8 4 9.3 1.4 3.4 3.9 9.3 5.6 13 1.7 3.7 3.7 8.3 4.4 10.2.7 1.9 2.5 6.1 3.9 9.3 1.4 3.1 2.6 5.9 2.5 6.2 0 .3.9 2.2 1.9 4.3 2.3 4.3 2.6 5.2 8.7 19.7 2.6 6 4.9 11.4 5.3 12 .4.5.7 1.2.8 1.5.1.7 1.3 3.6 3.4 8.5 1 2.2 3.6 8.3 5.8 13.5 2.2 5.2 4.8 10.8 5.6 12.5.9 1.6 1.6 3.3 1.6 3.7 0 .7 2.1 5.5 7.1 16.5 1 2.4 1.9 4.5 1.9 4.7 0 .2 1.2 3 2.7 6.2 1.5 3.3 2.7 6.1 2.8 6.4.1.3.7 1.8 1.3 3.3.7 1.6 1.2 3 1.2 3.2 0 .2 1.5 3.6 3.4 7.7 1.8 4 5 11.3 7.1 16.3 3.3 7.8 5.2 12.2 9.5 22 .5 1.1 1.9 4.2 3.1 7 1.2 2.7 2.3 5.2 2.3 5.5.1.5 3.5 8.3 8.2 18.8 1.3 2.9 2.4 5.5 2.4 5.7 0 .2 1.2 3 2.7 6.2 1.5 3.2 2.8 6 2.8 6.3.3 1 2.6 6.5 3.5 8.5.5 1.1 2.5 5.6 4.3 10 4.7 11.1 18.1 41.9 20.8 48 1.2 2.7 2.3 5.2 2.4 5.5.4 1.2 8.3 19.6 13 30.5.8 1.6 3.4 7.7 5.9 13.5 2.4 5.8 5.5 12.7 6.7 15.5 1.2 2.7 2.3 5.4 2.5 6 .3.9 14.1 32.9 16.4 38 1.3 3 4.3 9.8 9 20.9 2.3 5.4 4.5 10.6 5 11.5.4.9 1.2 2.7 1.8 4.1 3.7 8.6 7.5 17.5 9.4 21.7 1.1 2.6 2.2 5.2 2.3 5.8.2.5 1.4 3.5 2.8 6.5s5.2 11.8 8.5 19.5c3.3 7.7 7 16.2 8.2 19 1.3 2.7 2.4 5.4 2.6 6 .1.5 1.5 3.7 3 7s2.8 6.2 2.9 6.5c.4 1.3 10.6 25 13.5 31.5 2.6 5.9 5 11.4 5 11.8 0 .2 1.4 3.5 3.2 7.3 1.7 3.8 3.2 7.1 3.3 7.4.1.3.7 1.8 1.3 3.3.7 1.6 1.2 3 1.2 3.2 0 .2 1.6 3.7 3.5 7.8s3.5 7.7 3.5 8c0 .4 1.3 3.4 2.9 6.9 1.6 3.5 3.8 8.5 4.9 11.3 1.1 2.7 3.3 7.7 4.8 11s2.9 6.4 3 7c.1.5 3.7 8.9 7.9 18.5 7.8 17.9 10 23 11.5 26.5.5 1.1 2.3 5.4 4.1 9.5 1.7 4.1 4 9.5 5.2 12 1.1 2.5 4.7 10.8 7.9 18.5 3.3 7.7 6.8 15.8 7.8 18 3.5 7.8 5.3 12 5.5 13 .2.5 1.4 3.6 2.9 6.7 2.3 5 4.6 10.3 5.1 11.8.1.3 1 2.3 2 4.5.9 2.2 5.1 11.9 9.2 21.5 4.2 9.6 8.3 19.3 9.3 21.5 5.4 12.2 10.2 23.4 10.5 24.5 0 .3 1.3 3.1 2.8 6.3 1.5 3.2 2.7 6 2.7 6.2 0 .3 1.8 4.4 3.9 9.2 4.2 9.5 7 16.1 7.1 16.8 0 .3.9 2.2 2 4.2 1.1 2.1 2 4.1 2 4.5 0 .3 1.4 3.6 3 7.1 1.7 3.6 3 6.8 3 7 0 .3 1.4 3.6 3.2 7.4 1.8 3.7 3.3 7.2 3.4 7.8.1.5 1.2 3.2 2.4 6 9.9 22.4 10 22.6 18 41.5 3.5 8 6.7 15.1 7.2 15.8.6.6.7 1.2.4 1.2-.4 0-.1 1.2.8 2.7.8 1.6 3.3 7.3 5.7 12.8 4 9.6 7.4 17.4 10.5 24.2.8 1.7 1.4 3.3 1.4 3.6 0 .2 1.4 3.5 3.2 7.3 1.7 3.8 3.2 7.1 3.3 7.4.5 1.7 2.8 7 6.3 15 1.1 2.5 4.1 9.4 6.7 15.5 2.6 6 5.5 12.8 6.5 15 3.7 8.2 5.3 12 5.6 13 .2 1 2.3 5.9 7 16.3 1.3 2.9 2.4 5.4 2.4 5.7 0 .2 1.4 3.4 3.1 7.2 1.7 3.7 3.7 8.4 4.5 10.3.9 1.9 1.9 4.4 2.4 5.5.5 1.1 3.2 7.4 6 14 2.9 6.6 6.1 14 7.2 16.5 1.1 2.5 2.6 6.1 3.4 8 .8 1.9 2.1 4.8 2.9 6.3.8 1.6 1.5 3.2 1.5 3.7s1.4 3.9 3.1 7.7c1.6 3.7 3.4 7.7 3.9 8.8.5 1.1 1.9 4.2 3.1 7 1.3 2.7 2.4 5.4 2.5 6 .1.5 1.6 4.1 3.4 8 1.7 3.8 3.8 8.6 4.6 10.5.9 1.9 1.9 4.4 2.4 5.5.5 1.1 2.9 6.7 5.4 12.5 2.4 5.8 5.5 12.7 6.7 15.5 1.2 2.7 2.3 5.4 2.4 6 .2.8 3 7.1 7.5 17 1 2.1 3.2 7.7 3.5 8.5 0 .3 1.3 3.1 2.8 6.3 1.5 3.2 2.7 6 2.7 6.2 0 .2 1.1 2.8 2.4 5.7 1.3 2.9 3.6 8.1 5 11.5 1.4 3.5 3.7 8.7 5.1 11.7 1.4 3 2.5 5.7 2.5 6 0 .2 1.4 3.4 3 6.9 1.7 3.6 3 6.8 3 7.2 0 .3 1.1 3 2.4 5.8 1.4 2.9 4.1 9 6.1 13.7 2 4.7 4.3 9.8 5 11.5.7 1.6 2.3 5.2 3.4 8 1.2 2.7 2.6 5.9 3.1 7 .5 1.1 2.1 4.9 3.6 8.5 1.4 3.6 4.2 9.8 6 13.8 1.9 4.1 3.4 7.6 3.4 7.9 0 .3.7 1.9 1.5 3.6.8 1.8 6 13.8 11.5 26.7 5.6 12.9 10.9 25.1 11.7 27 .9 1.9 1.7 3.7 1.8 4 .5 1.6 2.4 5.8 7.2 16.9 3 6.9 6.4 14.7 7.4 17.4 1.1 2.8 2.5 5.9 3.1 7.1.7 1.2 1.3 2.5 1.4 3.1.2 1 9.4 22.2 13.4 30.9 1.1 2.5 2 4.7 2 5 0 .2 1.3 3.3 2.9 6.8 1.6 3.5 5.9 13.5 9.6 22.3 3.7 8.7 8.1 18.7 9.6 22.1 1.6 3.4 2.9 6.5 2.9 6.8 0 .5 2.2 5.4 7.5 17.1 1 2.2 1.9 4.2 2 4.5.3 1 2.6 6.6 3.5 8.5 1.2 2.7 3 6.7 17 39.5 6.7 15.7 13 30.3 14 32.5 4.8 10.9 9.9 22.8 10.5 24.5.2.6 3.2 7.3 5.6 12.7 1 2.3 1.9 4.4 1.9 4.7 0 .3 1.6 3.8 3.5 7.8 2 4 3.5 7.3 3.3 7.3-.1 0 1.7 4.5 4.1 10 2.4 5.5 4.9 11.3 5.6 13 .7 1.6 2.9 6.7 4.9 11.1 2 4.5 3.6 8.4 3.6 8.6 0 .3 1.3 3.4 2.9 6.9 1.6 3.5 2.9 6.7 2.9 7.2.1.4 1 2.4 2 4.5 2.3 4.3 1.9 3.6 11.8 26.7 4.2 9.9 8.1 18.6 8.6 19.2.6.7.8 1.3.4 1.3-.3 0 .3 1.7 1.4 3.7 1.1 2.1 2 4.1 2 4.5 0 .4 1.6 4.2 3.5 8.4 1.9 4.1 3.5 7.7 3.5 7.9 0 .4 2.7 6.6 7.1 16.2 1 2.4 1.9 4.5 1.9 4.7 0 .2 1.2 3 2.7 6.2 1.5 3.3 2.7 6.1 2.8 6.4.1.3.7 1.8 1.3 3.3.7 1.6 1.2 3 1.2 3.2 0 .2 1.6 3.7 3.5 7.8s3.5 7.7 3.5 8c0 .2 1 2.6 2.2 5.3 1.2 2.7 2.3 5.1 2.3 5.4.2.8 2.1 5.1 4.8 11 3.7 8.1 6 13.4 6.3 14.5.1.5 1.4 3.6 2.8 6.8 1.4 3.1 2.7 6 2.8 6.5.2.8 6.2 14.3 8.4 18.6.8 1.6 1.4 3.3 1.4 3.7 0 .4 1.4 3.8 3.2 7.6 1.8 3.7 3.3 7 3.3 7.3.2.8 2.5 6.3 3.5 8.5 2 4.4 8.1 18.6 12.5 29 2.6 6 5.5 12.8 6.5 15 1 2.2 5.3 12.1 9.5 22 7.7 18.1 10.8 25.3 12.5 29 .5 1.1 3 6.9 5.6 13 2.5 6 5.1 11.6 5.6 12.2.6.7.8 1.3.5 1.3-.5 0 1.2 4 7.7 18.5.8 1.6 2.6 5.9 4.1 9.5 3.4 8 4.4 10.4 8.8 20.5 4.2 9.4 6.3 14.6 6.6 16 .2.5.9 2.1 1.7 3.5.7 1.4 3.4 7.4 6 13.5 2.5 6 5.4 12.8 6.4 15 1 2.2 3 6.9 4.5 10.5 1.5 3.6 3.6 8.5 4.7 11 1.2 2.5 2 4.7 2 5-.1.3.5 1.4 1.2 2.5s2 4 3 6.5 2.4 5.8 3.1 7.5c.8 1.6 3.5 7.9 6 14 5.7 13.2 6.7 15.5 9.6 22 1.2 2.7 2.3 5.2 2.4 5.5 0 .3 1.1 2.7 2.3 5.4 1.2 2.7 2.2 5 2.2 5.2 0 .3 2.9 6.9 6.7 15.3.8 1.8 1.8 2.9 2.3 2.5 1.4-1.6 68.6-91.9 94-126.4 21.9-29.7 26-35.3 37.4-51 5.8-8 10.9-15 11.4-15.5.5-.6 2.3-3.1 4-5.5 1.8-2.5 3.9-5.4 4.6-6.5.8-1.1 5.5-7.5 10.5-14.3 5-6.7 9.1-12.7 9.1-13.1 0-.5.4-1.1.9-1.3.9-.3 2.8-2.9 49.3-67.8 16.4-22.8 30.1-42 30.5-42.5 1.3-1.6 38.3-53.7 51.5-72.5 2.1-3 6.3-8.9 9.2-13 2.9-4.1 9.2-13 13.9-19.8 4.8-6.7 8.7-12.7 8.7-13.1 0-.5.4-1.1.8-1.3 1-.4 4.3-5.1 34.5-48.5 20.2-29 31.1-44.7 40.8-58.8 4.1-6 12.6-18.4 18.9-27.5 6.2-9.1 13.7-19.9 16.5-24 18.9-27.5 75.2-110.7 77-113.8.6-.9 1.3-1.9 1.6-2.2 1.2-1.1 14.9-22.2 14.9-23 0-.4.4-1 .8-1.2 1.1-.4 31.2-45.5 31.2-46.7 0-.5.4-1.1.8-1.3.4-.2 6.1-8.4 12.7-18.3 6.5-9.9 14.9-22.6 18.7-28.2 3.7-5.6 6.8-10.6 6.8-11.2 0-.6.4-1.1.8-1.1.5 0 1.5-1.2 2.3-2.7.8-1.6 2.2-3.6 3.1-4.7.9-1 2.3-3 3-4.5.8-1.4 6.3-10 12.2-19.1 26.8-40.6 36.4-55.5 41.9-64.4.7-1.1 1.6-2.5 2-3 1.9-2.6 12.1-18.5 14.5-22.6 1.4-2.5 3.2-4.9 3.9-5.3.7-.4 1.3-1.2 1.3-1.8 0-.5 2.9-5.3 6.3-10.7 3.5-5.3 7-10.8 7.7-12.1.7-1.4 1.7-3 2.2-3.5 1.1-1.2 1.5-1.9 38.7-60.8 14-22.2 27.4-43.2 29.6-46.8 2.3-3.6 8.4-13.3 13.5-21.5 5.1-8.3 9.9-15.8 10.8-16.8.8-.9 1.1-1.7.7-1.7-.4 0-.1-.8.7-1.8.8-.9 6.4-9.6 12.3-19.2s12.5-20.3 14.6-23.8c2.2-3.4 5.6-9 7.7-12.5 2.2-3.4 5.4-8.7 7.3-11.7 1.9-3 3.9-6.2 4.4-7.2.6-.9 6-10 12.1-20 6.1-10.1 16.2-26.6 22.3-36.8 6.1-10.2 11.6-19.2 12.1-20 1.1-1.8 13.8-22.8 16.1-26.8 2.8-4.8 20-33.7 20.9-35.2.5-.8 2-3.3 3.3-5.5 1.3-2.2 6.1-10.3 10.7-18 4.6-7.7 8.8-14.9 9.4-16 .6-1.1 3.7-6.3 6.9-11.7 3.1-5.3 5.7-10.1 5.7-10.6 0-.6.3-1.2.8-1.4.6-.3 8.9-14 15.4-25.6 1.1-2 2.4-4.2 2.8-4.7.4-.6 1.9-3 3.2-5.5 1.4-2.5 4.8-8.5 7.7-13.3 2.8-4.9 5.1-9.1 5.1-9.4 0-.3.8-1.7 1.9-3.1 1-1.5 2.9-4.7 4.3-7.2s3.4-6.1 4.5-8c8.3-14.2 25.3-44.4 25.3-44.7 0-.2 1-2 2.3-4.1 1.3-2 3.7-6.2 5.4-9.2 1.6-3 5.9-10.7 9.5-17 3.6-6.3 8-14.2 9.8-17.5 1.8-3.3 6.1-11 9.5-17 5.7-10.2 8.4-15 16.2-29.5 1.7-3 5.3-9.6 8-14.5 2.8-5 6.7-12.2 8.8-16 2.1-3.9 5-9.3 6.5-12 5.1-9.2 10.3-19 12.9-23.9l2.5-4.8-771-1542c-424-848.1-771.1-1542.1-771.4-1542.3-.3-.1-.9.1-1.5.6zM7210 6154.2c-10.2 17-19.3 32.4-20.2 34.1-.9 1.8-2.1 3.6-2.6 4.2-.8 1-12.1 19.8-13.5 22.5-.4.8-1.5 2.7-2.5 4.2-.9 1.4-3.5 5.7-5.8 9.5-2.2 3.7-9.9 16.2-16.9 27.8-7.1 11.5-13.9 22.8-15.2 25-1.3 2.2-4.8 8-7.8 12.8-3 4.8-5.5 9.2-5.5 9.8 0 .5-.4.9-.9.9s-1.4 1.3-2.1 3c-.7 1.6-1.6 3-2 3-.4 0-1.1 1.1-1.4 2.4-.3 1.4-1.2 3.1-1.9 3.8-.7.7-11.4 17.6-23.7 37.6-12.4 20-23.5 38-24.8 40-1.3 2-2.5 4.5-2.9 5.4-.3 1-.9 1.8-1.4 1.8-.6 0-1.3.8-1.7 1.8-.6 1.6-7.3 12.5-19.9 32.5-2.8 4.5-6.4 10.2-7.9 12.7-2.6 4.4-9.3 14.8-13.9 22-1.3 1.9-11 17.2-21.6 34-10.6 16.8-21.1 33.4-23.4 37-2.3 3.6-14.3 22.2-26.7 41.5-12.4 19.2-25.9 40.3-30.1 46.8-4.3 6.5-7.7 12.2-7.7 12.7 0 .4-.4 1-.9 1.2-.4.1-3.4 4.3-6.5 9.3-3.2 4.9-9.3 14.4-13.7 21-4.4 6.6-8.2 12.7-8.6 13.5-.4.8-1.2 1.9-2 2.3-.7.4-1.3 1.2-1.3 1.7 0 1-12.9 21.1-14 22-.4.3-.9 1-1.1 1.5-.7 1.9-58.9 90-60.8 92.2-.6.7-1.1 1.4-1.1 1.7 0 .5-15.9 24.3-60.5 90.6-12.8 19-27.8 41.2-33.3 49.5-5.6 8.2-10.8 15.7-11.7 16.6-.8.9-1.5 1.9-1.5 2.2 0 .3-6.5 10.1-14.5 21.7s-14.5 21.5-14.5 22-.4 1-.8 1.2c-.8.3-22.2 31-23.2 33.3-.3.6-1.1 1.8-1.8 2.6-2.5 2.8-20.2 29.1-20.2 30 0 .5-.4.9-.9.9-.6 0-2 1.8-3.2 4-1.3 2.2-2.6 4-3.1 4-.4 0-.8.4-.8 1 0 .5-3.7 6.2-8.3 12.7-4.5 6.5-10 14.5-12.2 17.8-2.2 3.2-4.6 6.6-5.2 7.5-.7.8-7.3 10.3-14.7 21-7.5 10.7-13.9 19.9-14.4 20.5-.4.5-7.5 10.7-15.8 22.5-18.3 26.2-16.5 23.7-50.8 72-15.4 21.7-30.3 42.9-33.2 47-2.9 4.1-5.7 7.9-6.1 8.5-.5.5-3.9 5.3-7.6 10.5-3.7 5.2-7.4 10.4-8.2 11.5-.7 1.1-4.1 5.8-7.5 10.5-3.3 4.7-6.8 9.6-7.8 10.9-.9 1.3-6.7 9.4-12.9 18-6.1 8.6-11.5 16-12 16.6-.5.5-9.9 13.6-21.1 29-23 31.9-65.3 90-67.8 93-.9 1.1-2.8 3.8-4.2 6-1.5 2.2-2.9 4.2-3.3 4.5-.3.3-3.7 4.8-7.5 10-17.9 24.2-21.6 29.3-29.9 40.5-11.8 15.9-52.5 70.5-53.6 71.9-.5.6-4.6 6-9.1 12.1-4.5 6-8.6 11.4-9 12-.5.5-5.9 7.7-12 16-6.2 8.2-11.7 15.5-12.3 16.2-.5.6-6.6 8.7-13.5 17.8-17.1 22.9-66.3 87.3-89.2 116.9-12.6 16.2-12.3 15.3-8.8 23.1 1 2.2 3.7 8.5 6 14s4.5 10.4 4.8 11c.4.5.7 1.4.8 2 .2.8 2.6 6.5 7.4 17 1 2.1 3.2 7.7 3.5 8.5 0 .3 1.3 3.1 2.8 6.3 1.5 3.2 2.7 6 2.7 6.2 0 .2 1.1 2.8 2.4 5.7 1.3 2.9 3.6 8.2 5.1 11.8 1.5 3.6 3.5 8.3 4.5 10.5 1 2.2 3.1 6.9 4.6 10.5 1.5 3.6 3.9 9.2 5.4 12.5 1.5 3.3 4.4 10 6.5 15 2 4.9 4.5 10.8 5.5 13 1 2.3 3.9 8.8 6.3 14.5 2.5 5.8 5.5 12.7 6.8 15.5 1.2 2.7 2.3 5.4 2.5 6 .2.9 17 39.7 19.4 45 .5 1.1 2.9 6.7 5.4 12.5 2.4 5.8 5.5 12.7 6.7 15.5 1.2 2.7 2.3 5.2 2.4 5.5.4 1.3 3.8 9.3 7.5 17.5.5 1.1 2.3 5.4 4.1 9.5 1.7 4.1 3.7 8.8 4.4 10.5.7 1.6 3.8 8.8 6.9 15.8 3.1 7 5.6 12.9 5.6 13.2 0 .2 1.4 3.4 3.1 7.2 3.3 7.5 3.2 7.2 8.4 19.3 2 4.7 4.3 9.8 5 11.5.7 1.6 2.2 5.2 3.3 8 1.1 2.7 3.3 7.9 5 11.5 1.6 3.6 5.6 12.6 8.7 20 3.1 7.4 6.6 15.5 7.8 18 1.1 2.5 2.2 4.9 2.3 5.5.1.5 4.3 10.2 9.2 21.5l8.9 20.5h1041.6c573 0 1041.7-.3 1041.7-.7 0-1-1102.3-2206.1-1103.1-2206.8-.3-.3-.8-1-1-1.6-.2-.6-8.7 12.8-18.9 29.8zM522.7 7286.8C235.2 7861.9 0 8332.7 0 8333c0 .3 468.7.5 1041.6.5 924.9 0 1041.8-.2 1042.5-1.5.5-.8 2-4.2 3.5-7.5 1.4-3.3 3.2-7.4 3.9-9 1.4-3 3.7-8.6 4-9.5.5-1.6 3-7.2 5.5-12.8 1.7-3.5 3-6.6 3-6.8 0-.3 1.1-3 2.5-6s2.5-5.6 2.5-5.9c0-.2 1.3-3.2 2.9-6.7 2.7-6.1 4.3-9.7 4.6-10.8 0-.3 1.3-3.1 2.8-6.3 1.5-3.2 2.7-6 2.7-6.2 0-.3.9-2.4 2-4.8 3.1-6.8 17.1-39.1 17.4-40.2.1-.6 1.5-3.6 2.9-6.9 1.5-3.2 2.7-6 2.7-6.3 0-.2 1.1-2.8 2.4-5.6 5.2-11.6 6.6-14.7 6.6-15.2 0-.2 1.3-3.3 2.9-6.7 2.7-6.1 8.4-19.2 14.4-33.3 3.7-8.9 4.8-11.4 8.6-19.8 1.7-3.8 3.1-7 3.1-7.2 0-.3 1.4-3.4 3-7 1.7-3.6 3-6.7 3-6.9 0-.2.8-2.1 1.7-4.2.9-2.2 1.7-4.1 1.8-4.4.1-.3 1.1-2.5 2.2-5s4.1-9.5 6.7-15.5c2.6-6.1 5.8-13.4 7.2-16.3 1.3-2.9 2.4-5.5 2.4-5.7 0-.2 1.1-2.8 2.4-5.7 1.3-2.9 3.6-8.2 5.1-11.8 2.8-6.6 5.6-13.1 8-18.5 1.3-2.8 3.6-8.3 4-9.5.2-.7 3.1-7.2 6.4-14.5 1.5-3.3 2.8-6.3 3-6.7.4-1.6 3.4-8.6 6.2-14.6 1.6-3.5 2.9-6.6 2.9-6.9 0-.2 1.4-3.4 3-7 1.7-3.5 3-6.7 3-6.9 0-.3.9-2.4 1.9-4.7 1.7-3.7 5.6-12.7 14.8-34.2 1.4-3.3 3.8-8.8 5.4-12.3 1.6-3.5 2.9-6.6 2.9-6.8 0-.3.9-2.6 2.1-5.2 4.1-9 4.8-10.8 12.5-28.7 4.2-9.9 8.6-20.3 9.8-23 1.3-2.8 2.9-6.6 3.6-8.5.7-1.9 1.7-4 2.1-4.5.4-.6 2.3-5.1 4.3-10 2.1-5 4.3-10.4 5-12 4.4-9.8 8-18 9.6-22 .9-2.1 4.2-9.8 6.5-15 .8-1.7 2.2-5 3.3-7.5 1.1-2.5 2.9-6.6 4.1-9.2 1.1-2.6 2.1-5 2.1-5.3 0-.2 1.1-2.8 2.4-5.7 1.3-2.9 3.8-8.7 5.6-12.8 1.7-4.1 4-9.3 5-11.5.9-2.2 4.3-10.1 7.5-17.5 6.9-16.2 9.1-21.4 11.3-26 .9-1.9 1.7-3.7 1.7-4 .2-.7 1.5-3.9 3.8-9 1-2.5 2.6-6.1 3.4-8 .8-1.9 2.1-4.7 2.9-6.3.9-1.5 1.2-2.7.8-2.7-.3 0-.2-.6.4-1.3.5-.6 3.1-6.2 5.6-12.2 5.4-12.5 7.1-16.4 9.7-21.9 1.1-2.2 1.9-4.3 1.9-4.8 0-.4 1.1-3.1 2.4-6 1.4-2.9 4.6-10.3 7.2-16.3 4.9-11.7 7.7-18.1 9.9-23 .7-1.7 4.1-9.5 7.5-17.5 3.4-8 7-16.3 8-18.5 1-2.2 3.2-7.4 5-11.5 1.7-4.1 3.8-8.9 4.5-10.5.7-1.7 4.1-9.5 7.5-17.5 3.4-8 7-16.3 8-18.5 1-2.2 5-11.7 9-21 4-9.4 8.3-19.5 9.7-22.5 1.3-3 2.8-6.4 3.3-7.5.4-1.1 2-4.6 3.4-7.8s2.6-6 2.6-6.2c0-.3 1.6-3.9 3.5-8.1 1.9-4.1 3.5-7.8 3.5-8 0-.3.9-2.4 1.9-4.7 1-2.3 4.7-10.7 8.1-18.7 7.1-16.6 7.7-18.1 11.9-27.3 1.7-3.8 3.1-7.1 3.1-7.3 0-.4 2.1-5.5 5-11.9 5.7-12.6 7.2-16.1 7.4-17 .2-.6 1.5-3.6 2.9-6.9 1.5-3.2 2.7-6 2.7-6.3 0-.2 1.6-3.8 3.5-7.9 1.9-4.1 3.5-8 3.5-8.7 0-.7.4-1.7.9-2.3.5-.5 1.8-3.2 2.9-5.9 1.1-2.8 3.1-7.5 4.5-10.5 1.3-3 3.6-8.2 5-11.5 22.3-52.1 21.7-50.7 27.2-63 1.5-3.3 2.8-6.5 2.9-7 .1-.6 1.6-4.1 3.4-7.8 1.8-3.8 3.2-7.1 3.2-7.4 0-.3.6-1.9 1.4-3.6 4-8.8 6.4-14.4 13.6-31.2.4-1.1 1.8-4.3 3-7 1.2-2.8 2.6-5.9 3-7 .5-1.1 1.8-4.1 3-6.7 2-4.7 4.2-9.8 4.5-10.8.3-.8 3.5-8.1 6.2-14 1.4-3 2.6-6 2.7-6.5.1-.6 1.2-3 2.3-5.5 1.1-2.5 3.5-7.9 5.3-12 1.7-4.1 3.8-8.9 4.5-10.5.7-1.7 3.4-8 6-14 2.6-6.1 5.5-12.8 6.5-15 3.6-7.9 6.9-15.5 7-16 .1-.7 4.5-11 9-21 1.2-2.7 2.6-6.1 3.2-7.5 1.5-4 26.4-61.7 31.2-72.3 1.4-3.2 2.6-6 2.6-6.3 0-.3 1-2.6 2.1-5.2 4.3-9.4 6.2-13.7 6.3-14.2.1-.3 1.4-3.1 2.9-6.4 1.5-3.2 2.7-6.2 2.7-6.7s.4-1.7.9-2.7c.6-.9 1.9-3.7 3-6.2s3.1-7 4.5-10.1c1.4-3 3.4-8 4.6-11 1.2-3 3.5-8.2 5.1-11.7 1.6-3.5 2.9-6.9 2.9-7.6 0-.6.4-1.6.9-2.2.5-.5 1.6-2.6 2.5-4.7l1.5-3.7-2.7.5c-1.5.2-4.4.7-6.6 1-2.1.4-4.8.9-6 1.1-1.1.2-3.9.7-6.1 1-2.2.2-5.2.7-6.6.9-3.4.6-9.8 1.6-12.9 1.9-1.4.2-4.5.6-7 1-5.2.9-7.7 1.2-14 2.1-2.5.3-5.6.8-7 1-1.4.3-5 .7-8 1-3 .3-6.6.7-8 1-1.4.2-5 .6-8 1-3 .3-7.1.8-9 1-10.1 1.2-17.6 2-27.5 3-2.7.3-7 .7-9.5 1-2.5.3-7.4.8-11 1.1-3.6.3-8.1.7-10 .9-4.2.4-20 1.7-25 2-1.9.1-8 .6-13.5 1s-12 .8-14.5 1c-2.5.2-10.6.7-18 1-7.4.4-16 .9-19 1-39.7 2.1-159.3 2.8-196 1.2-28.1-1.3-43.9-2.2-58.5-3.2-3.3-.3-9.4-.7-13.5-1-8-.5-17-1.3-26-2.1-3-.3-8-.7-11-.9-3-.3-7.5-.7-10-1-2.5-.3-7.2-.7-10.5-1-3.3-.3-7.6-.8-9.5-1-1.9-.3-6.2-.7-9.5-1-3.3-.3-7.1-.8-8.5-1-1.4-.2-5-.7-8-1-3-.3-6.6-.8-8-1-1.4-.3-4.7-.7-7.5-1-2.7-.3-6.3-.7-8-.9-1.6-.2-5.2-.7-8-1.1-2.7-.4-5.9-.9-7-1.1-1.1-.2-4-.6-6.5-.9-5.2-.7-11.6-1.6-14.5-2.1-1-.2-3.7-.6-6-.9-6.4-1-10.6-1.6-12.8-2.1-1.2-.2-3.9-.6-6.2-.9-4.5-.7-7.9-1.3-11.5-2-1.3-.2-4-.7-6-1-2-.3-4.7-.8-6-1-1.4-.3-4-.8-5.9-1.1-1.8-.3-4.3-.8-5.5-1-1.1-.2-3.3-.6-4.8-.9-1.5-.3-7.3-1.4-12.8-2.5-5.5-1.1-11.5-2.2-13.3-2.5-1.7-.3-3.9-.8-4.7-1-.8-.2-3.1-.7-5-1-1.9-.3-5.5-1.1-8-1.6-6-1.4-7.9-1.8-11.4-2.5-1.6-.2-3.2-.6-3.5-.8-.3-.2-2.4-.7-4.6-1-2.2-.4-4.8-.9-5.7-1.2-.9-.3-2.5-.7-3.5-.9-1.6-.3-8.6-1.9-13.5-3.1-1-.2-2.6-.6-3.6-.8-1-.2-4.7-1.1-8.3-2-3.5-.9-7.4-1.8-8.7-2.1-1.3-.2-3.2-.7-4.2-1-1-.3-2.8-.8-3.9-1-1.2-.3-2.9-.7-3.8-1-2.1-.6-17.1-4.4-19.3-4.9-3.5-.9-21-5.8-27-7.6-3.6-1.1-7.4-2.1-8.5-2.3-2.9-.5-13.4-3.6-17.5-5.2-1.9-.7-3.7-1.3-4-1.3-.3 0-2.5-.6-5-1.3-2.5-.7-4.7-1.3-5-1.4-2.4-.6-19.1-5.8-21.2-6.7-1.5-.5-2.9-1-3.2-1-.3.1-3.8-1.1-7.8-2.5s-7.7-2.6-8.3-2.8c-.5-.1-1.7-.5-2.5-.8-1.8-.7-11.1-3.8-12.5-4.1-.5-.2-1.9-.6-3-1-1.1-.5-3.1-1.2-4.5-1.6-1.4-.5-5.8-2-9.7-3.4-4-1.4-10.6-3.8-14.5-5.2-4-1.4-8.9-3.1-10.8-3.9-1.9-.7-6.2-2.3-9.5-3.5-6.7-2.4-12.7-4.7-16.5-6.3-4.7-1.9-6.5-2.6-24.5-9.7-9.9-3.9-18.9-7.5-20-8-5.8-2.6-15.1-6.7-15.8-6.8-.4-.1-3.7-1.5-7.3-3.2-3.6-1.6-6.7-3-6.9-3-.7 0-11.8-5-14.7-6.6-1.5-.8-3-1.5-3.3-1.5-.6.1-11.9-5-18.5-8.3-2.5-1.3-4.9-2.3-5.5-2.4-1.6-.3-71.7-35.5-84-42.2-12.7-6.8-20.2-10.8-26.5-14.2-2.5-1.2-4.7-2.6-5-2.9-.3-.3-4.1-2.5-8.5-5-4.4-2.4-9.3-5.2-11-6.1-1.6-1-4.1-2.4-5.5-3-1.4-.7-2.9-1.6-3.5-2.1-.5-.4-10.1-6.3-21.3-13-11.2-6.7-21.4-12.9-22.7-13.7-1.3-.8-5.7-3.5-9.7-6-4-2.5-7.7-4.8-8.3-5.3-1.4-1.2-40.8-27.1-41.9-27.6-.5-.2-1.6-1-2.5-1.7-.9-.7-9.5-6.8-19.1-13.5-37-25.9-81-59.4-115.5-88-5.2-4.3-39.3-33.6-42-36-1.6-1.4-8.2-7.3-14.5-12.9-24.4-21.9-47.7-44-72.8-69.2-9.2-9.2-17.1-16.8-17.7-16.8-.5.1-236.2 470.6-523.8 1045.8z"/></svg>