<?xml version="1.0" encoding="utf-8"?>
<!-- Generator: Adobe Illustrator 22.0.0, SVG Export Plug-In . SVG Version: 6.00 Build 0)  -->
<svg version="1.1" id="Logo" xmlns="http://www.w3.org/2000/svg" xmlns:xlink="http://www.w3.org/1999/xlink" x="0px" y="0px"
	 viewBox="0 0 2000 2000" style="enable-background:new 0 0 2000 2000;" xml:space="preserve">
<style type="text/css">
	.st0{fill:#FFFFFF;}
</style>
<g>
	<path class="st0" d="M1500,1000l-217.7-435.4c-111,86.6-153.2,272.8-200.3,465.7l168,389.7l130.1,301.7
		c92.2-122.8,196.5-275.9,272.4-416.9L1500,1000z"/>
	<path class="st0" d="M569.7,1441.9c107.6,0,177.9-52.3,228.7-134.2l71.1-165c81.5-257.9,109.9-610.5,325-753.6L1000,0L500,1000
		l-163.1,326.3C396.5,1404.9,478.9,1441.9,569.7,1441.9z"/>
	<path class="st0" d="M1734.9,1469.7c-89.1,150.3-195.3,301.5-284,416.2L1500,2000h500L1734.9,1469.7z"/>
	<path class="st0" d="M574.9,1631.2c-121.6,0-235.6-43-323.8-133.4L0,2000h500l162-375.8C634.9,1628.7,606,1631.2,574.9,1631.2z"/>
</g>
</svg>
