<?xml version="1.0" standalone="no"?>
<!DOCTYPE svg PUBLIC "-//W3C//DTD SVG 20010904//EN"
 "http://www.w3.org/TR/2001/REC-SVG-20010904/DTD/svg10.dtd">
<svg version="1.0" xmlns="http://www.w3.org/2000/svg"
 width="500.000000pt" height="500.000000pt" viewBox="0 0 500.000000 500.000000"
 preserveAspectRatio="xMidYMid meet">
<metadata>
Created by potrace 1.11, written by Peter Selinger 2001-2013
</metadata>
<g transform="translate(0.000000,500.000000) scale(0.100000,-0.100000)"
fill="#000000" stroke="none">
<path d="M2297 4944 c-1 -1 -29 -5 -62 -8 -214 -24 -482 -91 -637 -159 -32
-14 -58 -24 -58 -22 0 8 -265 -131 -335 -175 -88 -55 -202 -138 -280 -203 -76
-64 -257 -246 -310 -312 -22 -28 -45 -56 -52 -63 -27 -28 -182 -270 -226 -352
-108 -203 -192 -434 -236 -655 -39 -197 -46 -272 -46 -490 0 -227 7 -295 51
-525 33 -175 119 -412 221 -610 115 -222 258 -415 448 -605 177 -177 367 -318
585 -433 181 -96 448 -194 622 -228 218 -42 343 -53 563 -49 110 2 209 5 220
8 11 2 47 8 80 12 100 12 320 62 415 95 280 96 534 233 760 409 107 83 296
270 385 381 247 307 429 697 499 1066 15 83 20 115 35 239 13 108 10 387 -6
515 -16 137 -14 122 -47 275 -2 11 -9 40 -16 65 -7 25 -14 52 -15 60 -9 40
-77 225 -113 308 -314 718 -982 1258 -1747 1411 -191 38 -309 49 -518 48 -97
0 -178 -1 -180 -3z m307 -602 c54 -108 130 -260 169 -337 51 -103 66 -140 56
-144 -15 -5 -128 -117 -167 -164 -52 -63 -177 -332 -197 -420 -2 -12 -14 -53
-25 -92 -22 -73 -27 -91 -35 -126 -2 -11 -7 -29 -10 -39 -3 -10 -8 -27 -10
-37 -8 -40 -65 -263 -85 -337 -24 -86 -127 -337 -165 -401 -46 -78 -136 -156
-215 -188 -93 -38 -236 -39 -345 -2 -63 22 -160 86 -203 135 l-33 38 217 434
c119 238 249 497 288 576 39 78 72 148 74 155 2 6 7 16 12 22 5 5 97 188 205
405 108 217 199 398 201 402 7 11 137 271 139 278 6 19 18 40 24 40 3 0 50
-89 105 -198z m482 -965 c51 -100 196 -391 324 -647 l232 -465 -63 -110 c-35
-60 -78 -131 -96 -157 -18 -26 -33 -50 -33 -53 0 -5 -163 -246 -182 -270 -5
-5 -29 -38 -55 -72 -26 -35 -48 -61 -49 -60 -4 3 -184 418 -188 432 -2 6 -10
26 -19 45 -8 19 -66 152 -127 295 -62 143 -121 280 -132 305 -51 112 -55 125
-47 155 5 16 11 41 13 55 3 14 17 68 31 120 14 52 28 104 30 115 8 34 46 149
60 180 7 17 22 51 33 76 11 26 35 71 54 100 33 52 107 139 118 139 3 0 46 -82
96 -183z m934 -1867 l230 -460 -440 0 c-258 0 -440 4 -440 9 0 5 -15 42 -34
83 -18 40 -36 81 -39 91 -5 12 23 57 92 150 150 202 381 552 381 577 0 40 48
-46 250 -450z m-2808 397 c111 -106 248 -172 418 -201 77 -12 209 -13 255 -2
25 6 25 6 13 -23 -7 -16 -71 -165 -142 -330 l-130 -301 -438 0 -438 0 21 42
c12 24 22 44 23 46 1 2 60 121 133 265 72 144 160 319 194 390 35 70 66 127
70 127 4 0 14 -6 21 -13z"/>
</g>
</svg>
