<svg xmlns="http://www.w3.org/2000/svg" viewBox="0 0 16 16"><defs/><path d="M7.457031.179688c-.0625.007812-.25.027343-.417969.046874-1.699218.191407-3.332031.992188-4.574218 2.238282C1.21875 3.707031.46875 5.238281.222656 7.039062c-.054687.394532-.054687 1.527344 0 1.921876.246094 1.800781.996094 3.332031 2.242188 4.574218 1.242187 1.246094 2.773437 1.996094 4.574218 2.242188.394532.054687 1.527344.054687 1.921876 0 1.800781-.246094 3.332031-.996094 4.574218-2.242188 1.25-1.242187 1.996094-2.773437 2.242188-4.574218.054687-.394532.054687-1.527344 0-1.921876-.246094-1.800781-.996094-3.332031-2.242188-4.574218C12.316406 1.242188 10.8125.492188 9.070312.238281 8.761719.191406 7.679688.152344 7.457031.179688zm1.097657 2.367187l.535156 1.074219-.070313.050781c-.179687.125-.394531.359375-.558593.601563-.347657.523437-.535157 1.035156-.894532 2.453124-.246094.988282-.292968 1.128907-.550781 1.714844-.203125.449219-.359375.664063-.617187.835938-.253907.167968-.457032.226562-.796876.226562-.492187 0-.832031-.136718-1.15625-.46875L4.285156 8.875l1.847656-3.703125C7.152344 3.136719 7.992188 1.472656 8 1.472656c.007812 0 .257812.484375.554688 1.074219zm2.066406 4.132813l1.035156 2.074218-.148438.265625c-.304687.535157-1.039062 1.640625-1.320312 1.984375l-.0625.078125-.066406-.15625c-.035156-.085937-.367188-.847656-.730469-1.695312-.363281-.84375-.710937-1.644531-.769531-1.785157l-.105469-.246093.140625-.535157c.277344-1.074218.476562-1.535156.839844-1.933593.0625-.066407.117187-.121094.132812-.121094.007813 0 .484375.933594 1.054688 2.070313zm2.242187 4.488281l.738281 1.472656h-2.804687l-.273437-.632813.273437-.371093c.332031-.449219.875-1.242188 1.121094-1.644531.101562-.160157.1875-.296876.195312-.296876.007813 0 .34375.664063.75 1.472657zm-8.90625-1.207031c.480469.425781 1.050781.613281 1.773438.597656.207031-.007813.378906-.003906.375.003906-.007813.011719-.210938.480469-.453125 1.046875l-.449219 1.03125H2.398438l.695312-1.394531c.382812-.761719.707031-1.390625.71875-1.390625.019531 0 .082031.046875.144531.105469zm0 0"/></svg>