<svg id="Logo" xmlns="http://www.w3.org/2000/svg" viewBox="0 0 2000 2000"><title>Logo</title><path d="M1500,1000,1282.3,564.6c-111,86.62-153.16,272.75-200.28,465.69L1250,1420l130,301.72c92.19-122.77,196.49-275.86,272.37-416.87Z"/><path d="M569.73,1441.94c107.62,0,177.9-52.28,228.65-134.18l71.14-165c81.48-257.87,109.93-610.5,325-753.63L1000,0,500,1000,336.86,1326.28C396.5,1404.9,478.89,1441.94,569.73,1441.94Z"/><path d="M1734.86,1469.72c-89.14,150.27-195.29,301.53-284,416.22L1500,2000h500Z"/><path d="M574.91,1631.15c-121.57,0-235.61-43-323.78-133.42L0,2000H500l162-375.81A523.37,523.37,0,0,1,574.91,1631.15Z"/></svg>